<?xml version="1.0" encoding="UTF-8"?>
<!-- Generator: visioncortex VTracer 0.6.4 -->
<svg version="1.1" xmlns="http://www.w3.org/2000/svg" width="19" height="19">
<path d="M0,0 L4,0 L4,1 L5,1 L5,2 L6,2 L6,3 L16,3 L16,4 L-1,4 L-1,1 L0,1 Z M-1,6 L16,6 L16,7 L17,7 L17,8 L16,8 L16,17 L-1,17 Z " fill="#FFFFFF" transform="translate(2,1)"/>
<path d="M0,0 L4,0 L4,1 L5,1 L5,2 L6,2 L6,3 L16,3 L16,4 L-1,4 L-1,1 L0,1 Z " fill="#FFFFFF" transform="translate(2,1)"/>
<path d="M0,0 L17,0 L17,1 L0,1 Z " fill="#FFFFFF" opacity="0.2" transform="translate(1,6)"/>
<path d="M0,0 L14,0 L14,1 L0,1 Z " fill="#FFFFFF" opacity="0.101960786" transform="translate(3,18)"/>
<path d="M0,0 L17,0 L17,1 L0,1 Z " fill="#FFFFFF" opacity="0.5019608" transform="translate(1,5)"/>
<path d="M0,0 L7,0 L7,1 L0,1 Z " fill="#FFFFFF" opacity="0.7019608" transform="translate(10,3)"/>
<path d="M0,0 L1,0 L1,1 L0,1 Z " fill="#FFFFFF" opacity="0.95686275" transform="translate(0,8)"/>
<path d="M0,0 L9,0 L9,1 L0,1 Z " fill="#FFFFFF" transform="translate(9,4)"/>
<path d="M0,0 L3,0 L3,1 L0,1 Z " fill="#FFFFFF" opacity="0.101960786" transform="translate(3,0)"/>
<path d="M0,0 L1,0 L1,1 L0,1 Z " fill="#FFFFFF" opacity="0.6431373" transform="translate(18,15)"/>
<path d="M0,0 L1,0 L1,1 L0,1 Z " fill="#FFFFFF" opacity="0.5803922" transform="translate(0,15)"/>
<path d="M0,0 L1,0 L1,1 L0,1 Z " fill="#FFFFFF" opacity="0.7529412" transform="translate(18,13)"/>
<path d="M0,0 L1,0 L1,2 L0,2 Z " fill="#FFFFFF" opacity="0.40392157" transform="translate(0,3)"/>
<path d="M0,0 L1,0 L1,1 L0,1 Z " fill="#FFFFFF" opacity="0.46666667" transform="translate(18,4)"/>
<path d="M0,0 L1,0 L1,1 L0,1 Z " fill="#FFFFFF" opacity="0.74509805" transform="translate(7,2)"/>
<path d="M0,0 L1,0 L1,1 L0,1 Z M-1,1 L0,1 L0,2 L-1,2 Z " fill="#FFFFFF" transform="translate(2,1)"/>
<path d="M0,0 L1,0 L1,1 L0,1 Z " fill="#FFFFFF" opacity="0.101960786" transform="translate(2,18)"/>
<path d="M0,0 L1,0 L1,1 L0,1 Z " fill="#FFFFFF" opacity="0.6862745" transform="translate(0,13)"/>
<path d="M0,0 L1,0 L1,1 L0,1 Z " fill="#FFFFFF" opacity="0.85882354" transform="translate(18,11)"/>
<path d="M0,0 L1,0 L1,1 L0,1 Z " fill="#FFFFFF" opacity="0.7921569" transform="translate(0,11)"/>
<path d="M0,0 L1,0 L1,1 L0,1 Z " fill="#FFFFFF" opacity="0.05490196" transform="translate(0,6)"/>
<path d="M0,0 L1,0 L1,1 L0,1 Z " fill="#FFFFFF" opacity="0.7019608" transform="translate(9,3)"/>
<path d="M0,0 L1,0 L1,1 L0,1 Z " fill="#FFFFFF" opacity="0.40392157" transform="translate(0,2)"/>
<path d="M0,0 L1,0 L1,1 L0,1 Z " fill="#FFFFFF" opacity="0.101960786" transform="translate(2,0)"/>
<path d="M0,0 L1,0 L1,1 L0,1 Z " fill="#FFFFFF" opacity="0.08627451" transform="translate(17,18)"/>
<path d="M0,0 L1,0 L1,1 L0,1 Z " fill="#FFFFFF" opacity="0.08235294" transform="translate(1,18)"/>
<path d="M0,0 L1,0 L1,1 L0,1 Z " fill="#FFFFFF" opacity="0.40784314" transform="translate(18,17)"/>
<path d="M0,0 L1,0 L1,1 L0,1 Z " fill="#FFFFFF" opacity="0.34117648" transform="translate(0,17)"/>
<path d="M0,0 L1,0 L1,1 L0,1 Z " fill="#FFFFFF" opacity="0.5921569" transform="translate(18,16)"/>
<path d="M0,0 L1,0 L1,1 L0,1 Z " fill="#FFFFFF" opacity="0.5254902" transform="translate(0,16)"/>
<path d="M0,0 L1,0 L1,1 L0,1 Z " fill="#FFFFFF" opacity="0.69803923" transform="translate(18,14)"/>
<path d="M0,0 L1,0 L1,1 L0,1 Z " fill="#FFFFFF" opacity="0.6313726" transform="translate(0,14)"/>
<path d="M0,0 L1,0 L1,1 L0,1 Z " fill="#FFFFFF" opacity="0.80784315" transform="translate(18,12)"/>
<path d="M0,0 L1,0 L1,1 L0,1 Z " fill="#FFFFFF" opacity="0.7411765" transform="translate(0,12)"/>
<path d="M0,0 L1,0 L1,1 L0,1 Z " fill="#FFFFFF" opacity="0.9137255" transform="translate(18,10)"/>
<path d="M0,0 L1,0 L1,1 L0,1 Z " fill="#FFFFFF" opacity="0.84705883" transform="translate(0,10)"/>
<path d="M0,0 L1,0 L1,1 L0,1 Z " fill="#FFFFFF" opacity="0.96862745" transform="translate(18,9)"/>
<path d="M0,0 L1,0 L1,1 L0,1 Z " fill="#FFFFFF" opacity="0.9019608" transform="translate(0,9)"/>
<path d="M0,0 L1,0 L1,1 L0,1 Z " fill="#FFFFFF" opacity="0.92156863" transform="translate(18,7)"/>
<path d="M0,0 L1,0 L1,1 L0,1 Z " fill="#FFFFFF" opacity="0.8745098" transform="translate(0,7)"/>
<path d="M0,0 L1,0 L1,1 L0,1 Z " fill="#FFFFFF" opacity="0.06666667" transform="translate(18,6)"/>
<path d="M0,0 L1,0 L1,1 L0,1 Z " fill="#FFFFFF" opacity="0.25490198" transform="translate(18,5)"/>
<path d="M0,0 L1,0 L1,1 L0,1 Z " fill="#FFFFFF" opacity="0.21960784" transform="translate(0,5)"/>
<path d="M0,0 L1,0 L1,1 L0,1 Z " fill="#FFFFFF" opacity="0.16078432" transform="translate(18,3)"/>
<path d="M0,0 L1,0 L1,1 L0,1 Z " fill="#FFFFFF" opacity="0.68235296" transform="translate(17,3)"/>
<path d="M0,0 L1,0 L1,1 L0,1 Z " fill="#FFFFFF" opacity="0.84705883" transform="translate(8,3)"/>
<path d="M0,0 L1,0 L1,1 L0,1 Z " fill="#FFFFFF" opacity="0.007843138" transform="translate(8,2)"/>
<path d="M0,0 L1,0 L1,1 L0,1 Z " fill="#FFFFFF" opacity="0.38431373" transform="translate(7,1)"/>
<path d="M0,0 L1,0 L1,1 L0,1 Z " fill="#FFFFFF" opacity="0.99607843" transform="translate(6,1)"/>
<path d="M0,0 L1,0 L1,1 L0,1 Z " fill="#FFFFFF" opacity="0.9843137" transform="translate(1,1)"/>
<path d="M0,0 L1,0 L1,1 L0,1 Z " fill="#FFFFFF" opacity="0.2509804" transform="translate(0,1)"/>
<path d="M0,0 L1,0 L1,1 L0,1 Z " fill="#FFFFFF" opacity="0.07450981" transform="translate(6,0)"/>
<path d="M0,0 L1,0 L1,1 L0,1 Z " fill="#FFFFFF" opacity="0.05882353" transform="translate(1,0)"/>
</svg>
