<?xml version="1.0" encoding="UTF-8"?>
<!-- Generator: visioncortex VTracer 0.6.4 -->
<svg version="1.1" xmlns="http://www.w3.org/2000/svg" width="80" height="80">
<path d="M0,0 L62,0 L62,1 L66,1 L66,2 L67,2 L67,3 L68,3 L68,4 L69,4 L69,5 L70,5 L70,9 L71,9 L71,53 L70,53 L70,57 L69,57 L69,58 L68,58 L68,59 L67,59 L67,60 L66,60 L66,61 L62,61 L62,62 L0,62 L0,61 L-4,61 L-4,60 L-5,60 L-5,59 L-6,59 L-6,58 L-7,58 L-7,57 L-8,57 L-8,53 L-9,53 L-9,9 L-8,9 L-8,5 L-7,5 L-7,4 L-6,4 L-6,3 L-5,3 L-5,2 L-4,2 L-4,1 L0,1 Z M-1,4 L-1,5 L-3,5 L-3,6 L-4,6 L-4,8 L-5,8 L-5,54 L-4,54 L-4,56 L-3,56 L-3,57 L-1,57 L-1,58 L31,58 L31,4 Z M47,13 L47,18 L39,18 L39,24 L58,24 L58,26 L57,26 L57,28 L56,28 L56,29 L55,29 L55,31 L54,31 L54,32 L53,32 L53,33 L52,33 L52,34 L49,34 L49,33 L48,33 L48,32 L47,32 L47,31 L46,31 L46,30 L45,30 L45,26 L39,26 L39,31 L40,31 L40,33 L41,33 L41,35 L42,35 L42,36 L43,36 L43,37 L40,37 L40,38 L39,38 L39,43 L46,43 L46,42 L50,42 L50,41 L51,41 L51,42 L54,42 L54,43 L62,43 L62,38 L61,38 L61,37 L58,37 L58,36 L59,36 L59,34 L60,34 L60,33 L61,33 L61,31 L62,31 L62,29 L63,29 L63,27 L64,27 L64,22 L65,22 L65,21 L64,21 L64,19 L63,19 L63,18 L53,18 L53,13 Z " fill="#FFFFFF" transform="translate(9,9)"/>
<path d="M0,0 L1,0 L1,1 L0,1 Z " fill="#FFFFFF" opacity="0.99607843" transform="translate(56,41)"/>
<path d="M0,0 L6,0 L6,2 L7,2 L7,5 L8,5 L8,7 L9,7 L9,9 L10,9 L10,12 L11,12 L11,14 L12,14 L12,17 L13,17 L13,19 L14,19 L14,21 L15,21 L15,23 L10,23 L10,22 L9,22 L9,19 L-4,19 L-4,22 L-5,22 L-5,23 L-10,23 L-10,22 L-9,22 L-9,20 L-8,20 L-8,17 L-7,17 L-7,15 L-6,15 L-6,13 L-5,13 L-5,10 L-4,10 L-4,8 L-3,8 L-3,6 L-2,6 L-2,3 L-1,3 L-1,1 L0,1 Z M2,5 L2,7 L1,7 L1,9 L0,9 L0,12 L-1,12 L-1,15 L7,15 L7,14 L6,14 L6,11 L5,11 L5,9 L4,9 L4,6 L3,6 L3,5 Z " fill="#FFFFFF" transform="translate(20,28)"/>
<path d="M0,0 L1,0 L1,1 L0,1 Z " fill="#FFFFFF" opacity="0.99215686" transform="translate(25,39)"/>
<path d="M0,0 L1,0 L1,44 L0,44 Z " fill="#FFFFFF" opacity="0.79607844" transform="translate(4,18)"/>
<path d="M0,0 L18,0 L18,1 L0,1 Z " fill="#FFFFFF" opacity="0.8" transform="translate(49,32)"/>
<path d="M0,0 L31,0 L31,1 L0,1 Z " fill="#FFFFFF" opacity="0.8" transform="translate(9,66)"/>
<path d="M0,0 L31,0 L31,1 L0,1 Z " fill="#FFFFFF" opacity="0.8" transform="translate(9,13)"/>
<path d="M0,0 L8,0 L8,1 L0,1 Z " fill="#FFFFFF" opacity="0.4" transform="translate(62,27)"/>
<path d="M0,0 L5,0 L5,1 L0,1 Z M-1,1 L0,1 L0,2 L-1,2 Z M-2,2 L-1,2 L-1,3 L-2,3 Z " fill="#FFFFFF" opacity="0.6" transform="translate(21,27)"/>
<path d="M0,0 L6,0 L6,1 L0,1 Z " fill="#FFFFFF" opacity="0.4" transform="translate(50,27)"/>
<path d="M0,0 L4,0 L4,1 L0,1 Z " fill="#FFFFFF" opacity="0.8" transform="translate(31,51)"/>
<path d="M0,0 L1,0 L1,4 L0,4 Z " fill="#FFFFFF" opacity="0.34509805" transform="translate(70,47)"/>
<path d="M0,0 L8,0 L8,1 L0,1 Z " fill="#FFFFFF" opacity="0.3019608" transform="translate(19,47)"/>
<path d="M0,0 L1,0 L1,1 L0,1 Z " fill="#FFFFFF" opacity="0.36078432" transform="translate(51,51)"/>
<path d="M0,0 L4,0 L4,1 L0,1 Z " fill="#FFFFFF" opacity="0.8" transform="translate(11,51)"/>
<path d="M0,0 L5,0 L5,1 L0,1 Z " fill="#FFFFFF" opacity="0.4" transform="translate(20,42)"/>
<path d="M0,0 L1,0 L1,1 L0,1 Z " fill="#FFFFFF" opacity="0.627451" transform="translate(52,46)"/>
<path d="M0,0 L3,0 L3,1 L0,1 Z " fill="#FFFFFF" opacity="0.7019608" transform="translate(50,35)"/>
<path d="M0,0 L1,0 L1,1 L0,1 Z " fill="#FFFFFF" opacity="0.9647059" transform="translate(69,46)"/>
<path d="M0,0 L1,0 L1,1 L0,1 Z " fill="#FFFFFF" opacity="0.011764706" transform="translate(72,30)"/>
<path d="M0,0 L1,0 L1,1 L0,1 Z M-1,1 L0,1 L0,2 L-1,2 Z " fill="#FFFFFF" opacity="0.89411765" transform="translate(3,11)"/>
<path d="M0,0 L1,0 L1,1 L0,1 Z M1,1 L2,1 L2,2 L1,2 Z " fill="#FFFFFF" opacity="0.89411765" transform="translate(2,67)"/>
<path d="M0,0 L1,0 L1,1 L0,1 Z " fill="#FFFFFF" opacity="0.972549" transform="translate(58,50)"/>
<path d="M0,0 L1,0 L1,1 L0,1 Z " fill="#FFFFFF" opacity="0.99215686" transform="translate(27,32)"/>
<path d="M0,0 L1,0 L1,1 L0,1 Z M-1,1 L0,1 L0,2 L-1,2 Z " fill="#FFFFFF" opacity="0.76862746" transform="translate(6,14)"/>
<path d="M0,0 L1,0 L1,1 L0,1 Z M1,1 L2,1 L2,2 L1,2 Z " fill="#FFFFFF" opacity="0.89411765" transform="translate(76,11)"/>
<path d="M0,0 L1,0 L1,1 L0,1 Z M-1,1 L0,1 L0,2 L-1,2 Z " fill="#FFFFFF" opacity="0.89411765" transform="translate(77,67)"/>
<path d="M0,0 L1,0 L1,1 L0,1 Z " fill="#FFFFFF" opacity="0.7882353" transform="translate(35,51)"/>
<path d="M0,0 L1,0 L1,1 L0,1 Z " fill="#FFFFFF" opacity="0.96862745" transform="translate(23,34)"/>
<path d="M0,0 L1,0 L1,1 L0,1 Z M-1,1 L0,1 L0,2 L-1,2 Z " fill="#FFFFFF" transform="translate(20,28)"/>
<path d="M0,0 L1,0 L1,4 L0,4 Z " fill="#FFFFFF" opacity="0.26666668" transform="translate(61,23)"/>
<path d="M0,0 L4,0 L4,1 L0,1 Z " fill="#FFFFFF" opacity="0.6" transform="translate(57,22)"/>
<path d="M0,0 L1,0 L1,1 L0,1 Z M-1,1 L0,1 L0,2 L-1,2 Z M-2,2 L-1,2 L-1,3 L-2,3 Z M-3,3 L-2,3 L-2,4 L-3,4 Z M-4,4 L-3,4 L-3,5 L-4,5 Z " fill="#FFFFFF" transform="translate(5,10)"/>
<path d="M0,0 L1,0 L1,1 L0,1 Z " fill="#FFFFFF" opacity="0.9372549" transform="translate(8,70)"/>
<path d="M0,0 L1,0 L1,1 L0,1 Z " fill="#FFFFFF" opacity="0.3372549" transform="translate(67,51)"/>
<path d="M0,0 L1,0 L1,1 L0,1 Z " fill="#FFFFFF" opacity="0.8" transform="translate(10,51)"/>
<path d="M0,0 L1,0 L1,4 L0,4 Z " fill="#FFFFFF" opacity="0.011764706" transform="translate(48,47)"/>
<path d="M0,0 L1,0 L1,1 L0,1 Z " fill="#FFFFFF" opacity="0.8980392" transform="translate(69,41)"/>
<path d="M0,0 L1,0 L1,4 L0,4 Z " fill="#FFFFFF" opacity="0.011764706" transform="translate(48,28)"/>
<path d="M0,0 L1,0 L1,4 L0,4 Z " fill="#FFFFFF" opacity="0.93333334" transform="translate(56,23)"/>
<path d="M0,0 L1,0 L1,1 L0,1 Z " fill="#FFFFFF" opacity="0.9254902" transform="translate(79,17)"/>
<path d="M0,0 L1,0 L1,1 L0,1 Z " fill="#FFFFFF" opacity="0.9254902" transform="translate(0,17)"/>
<path d="M0,0 L1,0 L1,1 L0,1 Z " fill="#FFFFFF" opacity="0.9372549" transform="translate(8,9)"/>
<path d="M0,0 L1,0 L1,1 L0,1 Z " fill="#FFFFFF" opacity="0.7647059" transform="translate(5,64)"/>
<path d="M0,0 L1,0 L1,1 L0,1 Z " fill="#FFFFFF" opacity="0.24313726" transform="translate(62,50)"/>
<path d="M0,0 L1,0 L1,1 L0,1 Z " fill="#FFFFFF" opacity="0.52156866" transform="translate(65,46)"/>
<path d="M0,0 L1,0 L1,1 L0,1 Z " fill="#FFFFFF" opacity="0.99215686" transform="translate(67,44)"/>
<path d="M0,0 L1,0 L1,1 L0,1 Z " fill="#FFFFFF" opacity="0.7921569" transform="translate(51,44)"/>
<path d="M0,0 L1,0 L1,1 L0,1 Z " fill="#FFFFFF" opacity="0.9882353" transform="translate(57,42)"/>
<path d="M0,0 L1,0 L1,1 L0,1 Z " fill="#FFFFFF" opacity="0.9843137" transform="translate(55,40)"/>
<path d="M0,0 L1,0 L1,1 L0,1 Z " fill="#FFFFFF" opacity="0.6156863" transform="translate(48,37)"/>
<path d="M0,0 L1,0 L1,1 L0,1 Z " fill="#FFFFFF" opacity="0.56078434" transform="translate(67,33)"/>
<path d="M0,0 L1,0 L1,1 L0,1 Z " fill="#FFFFFF" opacity="0.21568628" transform="translate(74,70)"/>
<path d="M0,0 L1,0 L1,1 L0,1 Z " fill="#FFFFFF" opacity="0.5647059" transform="translate(6,70)"/>
<path d="M0,0 L1,0 L1,1 L0,1 Z " fill="#FFFFFF" opacity="0.21568628" transform="translate(79,65)"/>
<path d="M0,0 L1,0 L1,1 L0,1 Z " fill="#FFFFFF" opacity="0.21568628" transform="translate(0,65)"/>
<path d="M0,0 L1,0 L1,1 L0,1 Z " fill="#FFFFFF" opacity="0.21568628" transform="translate(69,51)"/>
<path d="M0,0 L1,0 L1,1 L0,1 Z " fill="#FFFFFF" opacity="0.6156863" transform="translate(65,51)"/>
<path d="M0,0 L1,0 L1,1 L0,1 Z " fill="#FFFFFF" opacity="0.654902" transform="translate(53,51)"/>
<path d="M0,0 L1,0 L1,1 L0,1 Z " fill="#FFFFFF" opacity="0.24705882" transform="translate(49,51)"/>
<path d="M0,0 L1,0 L1,1 L0,1 Z " fill="#FFFFFF" opacity="0.8" transform="translate(30,51)"/>
<path d="M0,0 L1,0 L1,1 L0,1 Z " fill="#FFFFFF" opacity="0.3372549" transform="translate(56,50)"/>
<path d="M0,0 L1,0 L1,1 L0,1 Z " fill="#FFFFFF" opacity="0.003921569" transform="translate(28,50)"/>
<path d="M0,0 L1,0 L1,1 L0,1 Z " fill="#FFFFFF" opacity="0.03137255" transform="translate(16,50)"/>
<path d="M0,0 L1,0 L1,1 L0,1 Z " fill="#FFFFFF" opacity="0.34509805" transform="translate(9,50)"/>
<path d="M0,0 L1,0 L1,1 L0,1 Z " fill="#FFFFFF" opacity="0.20392157" transform="translate(59,49)"/>
<path d="M0,0 L1,0 L1,1 L0,1 Z " fill="#FFFFFF" opacity="0.2627451" transform="translate(35,49)"/>
<path d="M0,0 L1,0 L1,1 L0,1 Z " fill="#FFFFFF" opacity="0.4862745" transform="translate(10,48)"/>
<path d="M0,0 L1,0 L1,1 L0,1 Z " fill="#FFFFFF" opacity="0.42352942" transform="translate(34,47)"/>
<path d="M0,0 L1,0 L1,1 L0,1 Z " fill="#FFFFFF" opacity="0.3019608" transform="translate(18,47)"/>
<path d="M0,0 L1,0 L1,1 L0,1 Z " fill="#FFFFFF" opacity="0.84705883" transform="translate(67,46)"/>
<path d="M0,0 L1,0 L1,1 L0,1 Z " fill="#FFFFFF" opacity="0.27058825" transform="translate(53,46)"/>
<path d="M0,0 L1,0 L1,1 L0,1 Z " fill="#FFFFFF" opacity="0.9019608" transform="translate(50,46)"/>
<path d="M0,0 L1,0 L1,1 L0,1 Z " fill="#FFFFFF" opacity="0.627451" transform="translate(11,46)"/>
<path d="M0,0 L1,0 L1,1 L0,1 Z " fill="#FFFFFF" opacity="0.58431375" transform="translate(33,45)"/>
<path d="M0,0 L1,0 L1,1 L0,1 Z " fill="#FFFFFF" opacity="0.14117648" transform="translate(59,44)"/>
<path d="M0,0 L1,0 L1,1 L0,1 Z " fill="#FFFFFF" opacity="0.003921569" transform="translate(61,43)"/>
<path d="M0,0 L1,0 L1,1 L0,1 Z " fill="#FFFFFF" opacity="0.9607843" transform="translate(59,43)"/>
<path d="M0,0 L1,0 L1,1 L0,1 Z " fill="#FFFFFF" opacity="0.3372549" transform="translate(12,43)"/>
<path d="M0,0 L1,0 L1,1 L0,1 Z " fill="#FFFFFF" opacity="0.41960785" transform="translate(50,42)"/>
<path d="M0,0 L1,0 L1,1 L0,1 Z " fill="#FFFFFF" opacity="0.3254902" transform="translate(32,42)"/>
<path d="M0,0 L1,0 L1,1 L0,1 Z " fill="#FFFFFF" opacity="0.42745098" transform="translate(25,42)"/>
<path d="M0,0 L1,0 L1,1 L0,1 Z " fill="#FFFFFF" opacity="0.5019608" transform="translate(19,42)"/>
<path d="M0,0 L1,0 L1,1 L0,1 Z " fill="#FFFFFF" opacity="0.47843137" transform="translate(13,41)"/>
<path d="M0,0 L1,0 L1,1 L0,1 Z " fill="#FFFFFF" opacity="0.41568628" transform="translate(49,40)"/>
<path d="M0,0 L1,0 L1,1 L0,1 Z " fill="#FFFFFF" opacity="0.48235294" transform="translate(31,40)"/>
<path d="M0,0 L1,0 L1,1 L0,1 Z " fill="#FFFFFF" opacity="0.007843138" transform="translate(20,40)"/>
<path d="M0,0 L1,0 L1,1 L0,1 Z " fill="#FFFFFF" opacity="0.7490196" transform="translate(70,39)"/>
<path d="M0,0 L1,0 L1,1 L0,1 Z " fill="#FFFFFF" opacity="0.007843138" transform="translate(53,39)"/>
<path d="M0,0 L1,0 L1,1 L0,1 Z " fill="#FFFFFF" opacity="0.11764706" transform="translate(24,39)"/>
<path d="M0,0 L1,0 L1,1 L0,1 Z " fill="#FFFFFF" opacity="0.61960787" transform="translate(14,39)"/>
<path d="M0,0 L1,0 L1,1 L0,1 Z " fill="#FFFFFF" opacity="0.6431373" transform="translate(30,38)"/>
<path d="M0,0 L1,0 L1,1 L0,1 Z " fill="#FFFFFF" opacity="0.011764706" transform="translate(66,37)"/>
<path d="M0,0 L1,0 L1,1 L0,1 Z " fill="#FFFFFF" opacity="0.5647059" transform="translate(53,37)"/>
<path d="M0,0 L1,0 L1,1 L0,1 Z " fill="#FFFFFF" opacity="0.007843138" transform="translate(23,37)"/>
<path d="M0,0 L1,0 L1,1 L0,1 Z " fill="#FFFFFF" opacity="0.07058824" transform="translate(21,37)"/>
<path d="M0,0 L1,0 L1,1 L0,1 Z " fill="#FFFFFF" opacity="0.38431373" transform="translate(71,36)"/>
<path d="M0,0 L1,0 L1,1 L0,1 Z " fill="#FFFFFF" opacity="0.32941177" transform="translate(15,36)"/>
<path d="M0,0 L1,0 L1,1 L0,1 Z " fill="#FFFFFF" opacity="0.972549" transform="translate(72,35)"/>
<path d="M0,0 L1,0 L1,1 L0,1 Z " fill="#FFFFFF" opacity="0.7019608" transform="translate(49,35)"/>
<path d="M0,0 L1,0 L1,1 L0,1 Z " fill="#FFFFFF" opacity="0.38431373" transform="translate(29,35)"/>
<path d="M0,0 L1,0 L1,1 L0,1 Z " fill="#FFFFFF" opacity="0.47058824" transform="translate(16,34)"/>
<path d="M0,0 L1,0 L1,1 L0,1 Z " fill="#FFFFFF" opacity="0.4627451" transform="translate(72,33)"/>
<path d="M0,0 L1,0 L1,1 L0,1 Z " fill="#FFFFFF" opacity="0.54509807" transform="translate(28,33)"/>
<path d="M0,0 L1,0 L1,1 L0,1 Z " fill="#FFFFFF" opacity="0.6117647" transform="translate(17,32)"/>
<path d="M0,0 L1,0 L1,1 L0,1 Z " fill="#FFFFFF" opacity="0.28627452" transform="translate(27,30)"/>
<path d="M0,0 L1,0 L1,1 L0,1 Z " fill="#FFFFFF" opacity="0.32156864" transform="translate(18,29)"/>
<path d="M0,0 L1,0 L1,1 L0,1 Z " fill="#FFFFFF" opacity="0.6509804" transform="translate(72,28)"/>
<path d="M0,0 L1,0 L1,1 L0,1 Z " fill="#FFFFFF" opacity="0.44705883" transform="translate(26,28)"/>
<path d="M0,0 L1,0 L1,1 L0,1 Z " fill="#FFFFFF" opacity="0.4" transform="translate(49,27)"/>
<path d="M0,0 L1,0 L1,1 L0,1 Z " fill="#FFFFFF" opacity="0.6" transform="translate(20,27)"/>
<path d="M0,0 L1,0 L1,1 L0,1 Z " fill="#FFFFFF" opacity="0.003921569" transform="translate(5,17)"/>
<path d="M0,0 L1,0 L1,1 L0,1 Z " fill="#FFFFFF" opacity="0.56078434" transform="translate(79,15)"/>
<path d="M0,0 L1,0 L1,1 L0,1 Z " fill="#FFFFFF" opacity="0.56078434" transform="translate(0,15)"/>
<path d="M0,0 L1,0 L1,1 L0,1 Z " fill="#FFFFFF" opacity="0.6901961" transform="translate(4,10)"/>
<path d="M0,0 L1,0 L1,1 L0,1 Z " fill="#FFFFFF" opacity="0.21568628" transform="translate(74,9)"/>
<path d="M0,0 L1,0 L1,1 L0,1 Z " fill="#FFFFFF" opacity="0.5647059" transform="translate(6,9)"/>
<path d="M0,0 L1,0 L1,1 L0,1 Z " fill="#FFFFFF" opacity="0.5647059" transform="translate(73,70)"/>
<path d="M0,0 L1,0 L1,1 L0,1 Z " fill="#FFFFFF" opacity="0.8235294" transform="translate(72,70)"/>
<path d="M0,0 L1,0 L1,1 L0,1 Z " fill="#FFFFFF" opacity="0.9372549" transform="translate(71,70)"/>
<path d="M0,0 L1,0 L1,1 L0,1 Z " fill="#FFFFFF" opacity="0.8235294" transform="translate(7,70)"/>
<path d="M0,0 L1,0 L1,1 L0,1 Z " fill="#FFFFFF" opacity="0.21568628" transform="translate(5,70)"/>
<path d="M0,0 L1,0 L1,1 L0,1 Z " fill="#FFFFFF" opacity="0.101960786" transform="translate(76,69)"/>
<path d="M0,0 L1,0 L1,1 L0,1 Z " fill="#FFFFFF" opacity="0.6901961" transform="translate(75,69)"/>
<path d="M0,0 L1,0 L1,1 L0,1 Z " fill="#FFFFFF" opacity="0.6901961" transform="translate(4,69)"/>
<path d="M0,0 L1,0 L1,1 L0,1 Z " fill="#FFFFFF" opacity="0.101960786" transform="translate(3,69)"/>
<path d="M0,0 L1,0 L1,1 L0,1 Z " fill="#FFFFFF" opacity="0.18431373" transform="translate(77,68)"/>
<path d="M0,0 L1,0 L1,1 L0,1 Z " fill="#FFFFFF" opacity="0.18431373" transform="translate(2,68)"/>
<path d="M0,0 L1,0 L1,1 L0,1 Z " fill="#FFFFFF" opacity="0.101960786" transform="translate(78,67)"/>
<path d="M0,0 L1,0 L1,1 L0,1 Z " fill="#FFFFFF" opacity="0.101960786" transform="translate(1,67)"/>
<path d="M0,0 L1,0 L1,1 L0,1 Z " fill="#FFFFFF" opacity="0.6901961" transform="translate(78,66)"/>
<path d="M0,0 L1,0 L1,1 L0,1 Z " fill="#FFFFFF" opacity="0.9254902" transform="translate(8,66)"/>
<path d="M0,0 L1,0 L1,1 L0,1 Z " fill="#FFFFFF" opacity="0.6901961" transform="translate(1,66)"/>
<path d="M0,0 L1,0 L1,1 L0,1 Z " fill="#FFFFFF" opacity="0.17254902" transform="translate(7,65)"/>
<path d="M0,0 L1,0 L1,1 L0,1 Z " fill="#FFFFFF" opacity="0.76862746" transform="translate(6,65)"/>
<path d="M0,0 L1,0 L1,1 L0,1 Z " fill="#FFFFFF" opacity="0.5647059" transform="translate(79,64)"/>
<path d="M0,0 L1,0 L1,1 L0,1 Z " fill="#FFFFFF" opacity="0.011764706" transform="translate(6,64)"/>
<path d="M0,0 L1,0 L1,1 L0,1 Z " fill="#FFFFFF" opacity="0.5647059" transform="translate(0,64)"/>
<path d="M0,0 L1,0 L1,1 L0,1 Z " fill="#FFFFFF" opacity="0.827451" transform="translate(79,63)"/>
<path d="M0,0 L1,0 L1,1 L0,1 Z " fill="#FFFFFF" opacity="0.16862746" transform="translate(5,63)"/>
<path d="M0,0 L1,0 L1,1 L0,1 Z " fill="#FFFFFF" opacity="0.827451" transform="translate(0,63)"/>
<path d="M0,0 L1,0 L1,1 L0,1 Z " fill="#FFFFFF" opacity="0.9372549" transform="translate(79,62)"/>
<path d="M0,0 L1,0 L1,1 L0,1 Z " fill="#FFFFFF" opacity="0.92156863" transform="translate(4,62)"/>
<path d="M0,0 L1,0 L1,1 L0,1 Z " fill="#FFFFFF" opacity="0.9372549" transform="translate(0,62)"/>
<path d="M0,0 L1,0 L1,1 L0,1 Z " fill="#FFFFFF" opacity="0.4745098" transform="translate(70,51)"/>
<path d="M0,0 L1,0 L1,1 L0,1 Z " fill="#FFFFFF" opacity="0.3019608" transform="translate(68,51)"/>
<path d="M0,0 L1,0 L1,1 L0,1 Z " fill="#FFFFFF" opacity="0.4627451" transform="translate(66,51)"/>
<path d="M0,0 L1,0 L1,1 L0,1 Z " fill="#FFFFFF" opacity="0.76862746" transform="translate(64,51)"/>
<path d="M0,0 L1,0 L1,1 L0,1 Z " fill="#FFFFFF" opacity="0.972549" transform="translate(63,51)"/>
<path d="M0,0 L1,0 L1,1 L0,1 Z " fill="#FFFFFF" opacity="0.83137256" transform="translate(54,51)"/>
<path d="M0,0 L1,0 L1,1 L0,1 Z " fill="#FFFFFF" opacity="0.5176471" transform="translate(52,51)"/>
<path d="M0,0 L1,0 L1,1 L0,1 Z " fill="#FFFFFF" opacity="0.3019608" transform="translate(50,51)"/>
<path d="M0,0 L1,0 L1,1 L0,1 Z " fill="#FFFFFF" opacity="0.20784314" transform="translate(48,51)"/>
<path d="M0,0 L1,0 L1,1 L0,1 Z " fill="#FFFFFF" opacity="0.0627451" transform="translate(36,51)"/>
<path d="M0,0 L1,0 L1,1 L0,1 Z " fill="#FFFFFF" opacity="0.41568628" transform="translate(29,51)"/>
<path d="M0,0 L1,0 L1,1 L0,1 Z " fill="#FFFFFF" opacity="0.4862745" transform="translate(15,51)"/>
<path d="M0,0 L1,0 L1,1 L0,1 Z " fill="#FFFFFF" opacity="0.5882353" transform="translate(9,51)"/>
<path d="M0,0 L1,0 L1,1 L0,1 Z " fill="#FFFFFF" opacity="0.03137255" transform="translate(63,50)"/>
<path d="M0,0 L1,0 L1,1 L0,1 Z " fill="#FFFFFF" opacity="0.5254902" transform="translate(61,50)"/>
<path d="M0,0 L1,0 L1,1 L0,1 Z " fill="#FFFFFF" opacity="0.87058824" transform="translate(60,50)"/>
<path d="M0,0 L1,0 L1,1 L0,1 Z " fill="#FFFFFF" opacity="0.65882355" transform="translate(57,50)"/>
<path d="M0,0 L1,0 L1,1 L0,1 Z " fill="#FFFFFF" opacity="0.09019608" transform="translate(55,50)"/>
<path d="M0,0 L1,0 L1,1 L0,1 Z " fill="#FFFFFF" opacity="0.68235296" transform="translate(35,50)"/>
<path d="M0,0 L1,0 L1,1 L0,1 Z " fill="#FFFFFF" opacity="0.8627451" transform="translate(29,50)"/>
<path d="M0,0 L1,0 L1,1 L0,1 Z " fill="#FFFFFF" opacity="0.92941177" transform="translate(15,50)"/>
<path d="M0,0 L1,0 L1,1 L0,1 Z " fill="#FFFFFF" opacity="0.0627451" transform="translate(58,49)"/>
<path d="M0,0 L1,0 L1,1 L0,1 Z " fill="#FFFFFF" opacity="0.25490198" transform="translate(28,49)"/>
<path d="M0,0 L1,0 L1,1 L0,1 Z " fill="#FFFFFF" opacity="0.3529412" transform="translate(16,49)"/>
<path d="M0,0 L1,0 L1,1 L0,1 Z " fill="#FFFFFF" opacity="0.8980392" transform="translate(10,49)"/>
<path d="M0,0 L1,0 L1,1 L0,1 Z " fill="#FFFFFF" opacity="0.019607844" transform="translate(9,49)"/>
<path d="M0,0 L1,0 L1,1 L0,1 Z " fill="#FFFFFF" opacity="0.003921569" transform="translate(35,48)"/>
<path d="M0,0 L1,0 L1,1 L0,1 Z " fill="#FFFFFF" opacity="0.8392157" transform="translate(34,48)"/>
<path d="M0,0 L1,0 L1,1 L0,1 Z " fill="#FFFFFF" opacity="0.6392157" transform="translate(28,48)"/>
<path d="M0,0 L1,0 L1,1 L0,1 Z " fill="#FFFFFF" opacity="0.74509805" transform="translate(16,48)"/>
<path d="M0,0 L1,0 L1,1 L0,1 Z " fill="#FFFFFF" opacity="0.9647059" transform="translate(28,47)"/>
<path d="M0,0 L1,0 L1,1 L0,1 Z " fill="#FFFFFF" opacity="0.3137255" transform="translate(27,47)"/>
<path d="M0,0 L1,0 L1,1 L0,1 Z " fill="#FFFFFF" opacity="0.35686275" transform="translate(17,47)"/>
<path d="M0,0 L1,0 L1,1 L0,1 Z " fill="#FFFFFF" opacity="0.99607843" transform="translate(16,47)"/>
<path d="M0,0 L1,0 L1,1 L0,1 Z " fill="#FFFFFF" opacity="0.972549" transform="translate(11,47)"/>
<path d="M0,0 L1,0 L1,1 L0,1 Z " fill="#FFFFFF" opacity="0.08627451" transform="translate(10,47)"/>
<path d="M0,0 L1,0 L1,1 L0,1 Z " fill="#FFFFFF" opacity="0.9019608" transform="translate(68,46)"/>
<path d="M0,0 L1,0 L1,1 L0,1 Z " fill="#FFFFFF" opacity="0.6784314" transform="translate(66,46)"/>
<path d="M0,0 L1,0 L1,1 L0,1 Z " fill="#FFFFFF" opacity="0.047058824" transform="translate(64,46)"/>
<path d="M0,0 L1,0 L1,1 L0,1 Z " fill="#FFFFFF" opacity="0.78431374" transform="translate(51,46)"/>
<path d="M0,0 L1,0 L1,1 L0,1 Z " fill="#FFFFFF" opacity="0.9372549" transform="translate(49,46)"/>
<path d="M0,0 L1,0 L1,1 L0,1 Z " fill="#FFFFFF" opacity="0.05490196" transform="translate(34,46)"/>
<path d="M0,0 L1,0 L1,1 L0,1 Z " fill="#FFFFFF" opacity="0.9490196" transform="translate(33,46)"/>
<path d="M0,0 L1,0 L1,1 L0,1 Z " fill="#FFFFFF" opacity="0.9882353" transform="translate(66,45)"/>
<path d="M0,0 L1,0 L1,1 L0,1 Z " fill="#FFFFFF" opacity="0.3764706" transform="translate(65,45)"/>
<path d="M0,0 L1,0 L1,1 L0,1 Z " fill="#FFFFFF" opacity="0.05490196" transform="translate(53,45)"/>
<path d="M0,0 L1,0 L1,1 L0,1 Z " fill="#FFFFFF" opacity="0.78039217" transform="translate(52,45)"/>
<path d="M0,0 L1,0 L1,1 L0,1 Z " fill="#FFFFFF" opacity="0.19607843" transform="translate(11,45)"/>
<path d="M0,0 L1,0 L1,1 L0,1 Z " fill="#FFFFFF" opacity="0.3372549" transform="translate(66,44)"/>
<path d="M0,0 L1,0 L1,1 L0,1 Z " fill="#FFFFFF" opacity="0.043137256" transform="translate(58,44)"/>
<path d="M0,0 L1,0 L1,1 L0,1 Z " fill="#FFFFFF" opacity="0.05882353" transform="translate(52,44)"/>
<path d="M0,0 L1,0 L1,1 L0,1 Z " fill="#FFFFFF" opacity="0.16862746" transform="translate(33,44)"/>
<path d="M0,0 L1,0 L1,1 L0,1 Z " fill="#FFFFFF" opacity="0.99607843" transform="translate(32,44)"/>
<path d="M0,0 L1,0 L1,1 L0,1 Z " fill="#FFFFFF" opacity="0.76862746" transform="translate(12,44)"/>
<path d="M0,0 L1,0 L1,1 L0,1 Z " fill="#FFFFFF" opacity="0.46666667" transform="translate(67,43)"/>
<path d="M0,0 L1,0 L1,1 L0,1 Z " fill="#FFFFFF" opacity="0.41568628" transform="translate(60,43)"/>
<path d="M0,0 L1,0 L1,1 L0,1 Z " fill="#FFFFFF" opacity="0.85882354" transform="translate(58,43)"/>
<path d="M0,0 L1,0 L1,1 L0,1 Z " fill="#FFFFFF" opacity="0.22352941" transform="translate(57,43)"/>
<path d="M0,0 L1,0 L1,1 L0,1 Z " fill="#FFFFFF" opacity="0.12156863" transform="translate(51,43)"/>
<path d="M0,0 L1,0 L1,1 L0,1 Z " fill="#FFFFFF" opacity="0.9490196" transform="translate(50,43)"/>
<path d="M0,0 L1,0 L1,1 L0,1 Z " fill="#FFFFFF" opacity="0.74509805" transform="translate(32,43)"/>
<path d="M0,0 L1,0 L1,1 L0,1 Z " fill="#FFFFFF" opacity="0.6509804" transform="translate(68,42)"/>
<path d="M0,0 L1,0 L1,1 L0,1 Z " fill="#FFFFFF" opacity="0.043137256" transform="translate(62,42)"/>
<path d="M0,0 L1,0 L1,1 L0,1 Z " fill="#FFFFFF" opacity="0.7019608" transform="translate(61,42)"/>
<path d="M0,0 L1,0 L1,1 L0,1 Z " fill="#FFFFFF" opacity="0.43137255" transform="translate(56,42)"/>
<path d="M0,0 L1,0 L1,1 L0,1 Z " fill="#FFFFFF" opacity="0.99215686" transform="translate(26,42)"/>
<path d="M0,0 L1,0 L1,1 L0,1 Z " fill="#FFFFFF" opacity="0.8901961" transform="translate(13,42)"/>
<path d="M0,0 L1,0 L1,1 L0,1 Z " fill="#FFFFFF" opacity="0.019607844" transform="translate(12,42)"/>
<path d="M0,0 L1,0 L1,1 L0,1 Z " fill="#FFFFFF" opacity="0.0627451" transform="translate(68,41)"/>
<path d="M0,0 L1,0 L1,1 L0,1 Z " fill="#FFFFFF" opacity="0.03137255" transform="translate(63,41)"/>
<path d="M0,0 L1,0 L1,1 L0,1 Z " fill="#FFFFFF" opacity="0.73333335" transform="translate(62,41)"/>
<path d="M0,0 L1,0 L1,1 L0,1 Z " fill="#FFFFFF" opacity="0.37254903" transform="translate(55,41)"/>
<path d="M0,0 L1,0 L1,1 L0,1 Z " fill="#FFFFFF" opacity="0.007843138" transform="translate(50,41)"/>
<path d="M0,0 L1,0 L1,1 L0,1 Z " fill="#FFFFFF" opacity="0.8039216" transform="translate(49,41)"/>
<path d="M0,0 L1,0 L1,1 L0,1 Z " fill="#FFFFFF" opacity="0.015686275" transform="translate(32,41)"/>
<path d="M0,0 L1,0 L1,1 L0,1 Z " fill="#FFFFFF" opacity="0.8901961" transform="translate(31,41)"/>
<path d="M0,0 L1,0 L1,1 L0,1 Z " fill="#FFFFFF" opacity="0.34117648" transform="translate(25,41)"/>
<path d="M0,0 L1,0 L1,1 L0,1 Z " fill="#FFFFFF" opacity="0.48235294" transform="translate(19,41)"/>
<path d="M0,0 L1,0 L1,1 L0,1 Z " fill="#FFFFFF" opacity="0.3137255" transform="translate(69,40)"/>
<path d="M0,0 L1,0 L1,1 L0,1 Z " fill="#FFFFFF" opacity="0.023529412" transform="translate(64,40)"/>
<path d="M0,0 L1,0 L1,1 L0,1 Z " fill="#FFFFFF" opacity="0.7176471" transform="translate(63,40)"/>
<path d="M0,0 L1,0 L1,1 L0,1 Z " fill="#FFFFFF" opacity="0.24313726" transform="translate(54,40)"/>
<path d="M0,0 L1,0 L1,1 L0,1 Z " fill="#FFFFFF" opacity="0.7254902" transform="translate(25,40)"/>
<path d="M0,0 L1,0 L1,1 L0,1 Z " fill="#FFFFFF" opacity="0.8666667" transform="translate(19,40)"/>
<path d="M0,0 L1,0 L1,1 L0,1 Z " fill="#FFFFFF" opacity="0.96862745" transform="translate(14,40)"/>
<path d="M0,0 L1,0 L1,1 L0,1 Z " fill="#FFFFFF" opacity="0.08235294" transform="translate(13,40)"/>
<path d="M0,0 L1,0 L1,1 L0,1 Z " fill="#FFFFFF" opacity="0.5372549" transform="translate(64,39)"/>
<path d="M0,0 L1,0 L1,1 L0,1 Z " fill="#FFFFFF" opacity="0.83137256" transform="translate(54,39)"/>
<path d="M0,0 L1,0 L1,1 L0,1 Z " fill="#FFFFFF" opacity="0.07058824" transform="translate(49,39)"/>
<path d="M0,0 L1,0 L1,1 L0,1 Z " fill="#FFFFFF" opacity="0.972549" transform="translate(48,39)"/>
<path d="M0,0 L1,0 L1,1 L0,1 Z " fill="#FFFFFF" opacity="0.09019608" transform="translate(31,39)"/>
<path d="M0,0 L1,0 L1,1 L0,1 Z " fill="#FFFFFF" opacity="0.9764706" transform="translate(30,39)"/>
<path d="M0,0 L1,0 L1,1 L0,1 Z " fill="#FFFFFF" opacity="0.2627451" transform="translate(20,39)"/>
<path d="M0,0 L1,0 L1,1 L0,1 Z " fill="#FFFFFF" opacity="0.24313726" transform="translate(70,38)"/>
<path d="M0,0 L1,0 L1,1 L0,1 Z " fill="#FFFFFF" opacity="0.24705882" transform="translate(65,38)"/>
<path d="M0,0 L1,0 L1,1 L0,1 Z " fill="#FFFFFF" opacity="0.99215686" transform="translate(64,38)"/>
<path d="M0,0 L1,0 L1,1 L0,1 Z " fill="#FFFFFF" opacity="0.27450982" transform="translate(53,38)"/>
<path d="M0,0 L1,0 L1,1 L0,1 Z " fill="#FFFFFF" opacity="0.7411765" transform="translate(48,38)"/>
<path d="M0,0 L1,0 L1,1 L0,1 Z " fill="#FFFFFF" opacity="0.49803922" transform="translate(24,38)"/>
<path d="M0,0 L1,0 L1,1 L0,1 Z " fill="#FFFFFF" opacity="0.64705884" transform="translate(20,38)"/>
<path d="M0,0 L1,0 L1,1 L0,1 Z " fill="#FFFFFF" opacity="0.19215687" transform="translate(14,38)"/>
<path d="M0,0 L1,0 L1,1 L0,1 Z " fill="#FFFFFF" opacity="0.7764706" transform="translate(71,37)"/>
<path d="M0,0 L1,0 L1,1 L0,1 Z " fill="#FFFFFF" opacity="0.83137256" transform="translate(65,37)"/>
<path d="M0,0 L1,0 L1,1 L0,1 Z " fill="#FFFFFF" opacity="0.22352941" transform="translate(30,37)"/>
<path d="M0,0 L1,0 L1,1 L0,1 Z " fill="#FFFFFF" opacity="0.8745098" transform="translate(24,37)"/>
<path d="M0,0 L1,0 L1,1 L0,1 Z " fill="#FFFFFF" opacity="0.96862745" transform="translate(20,37)"/>
<path d="M0,0 L1,0 L1,1 L0,1 Z " fill="#FFFFFF" opacity="0.7607843" transform="translate(15,37)"/>
<path d="M0,0 L1,0 L1,1 L0,1 Z " fill="#FFFFFF" opacity="0.36862746" transform="translate(66,36)"/>
<path d="M0,0 L1,0 L1,1 L0,1 Z " fill="#FFFFFF" opacity="0.7254902" transform="translate(53,36)"/>
<path d="M0,0 L1,0 L1,1 L0,1 Z " fill="#FFFFFF" opacity="0.49803922" transform="translate(48,36)"/>
<path d="M0,0 L1,0 L1,1 L0,1 Z " fill="#FFFFFF" opacity="0.8039216" transform="translate(29,36)"/>
<path d="M0,0 L1,0 L1,1 L0,1 Z " fill="#FFFFFF" opacity="0.26666668" transform="translate(23,36)"/>
<path d="M0,0 L1,0 L1,1 L0,1 Z " fill="#FFFFFF" opacity="0.43137255" transform="translate(21,36)"/>
<path d="M0,0 L1,0 L1,1 L0,1 Z " fill="#FFFFFF" opacity="0.043137256" transform="translate(71,35)"/>
<path d="M0,0 L1,0 L1,1 L0,1 Z " fill="#FFFFFF" opacity="0.83137256" transform="translate(66,35)"/>
<path d="M0,0 L1,0 L1,1 L0,1 Z " fill="#FFFFFF" opacity="0.93333334" transform="translate(53,35)"/>
<path d="M0,0 L1,0 L1,1 L0,1 Z " fill="#FFFFFF" opacity="0.827451" transform="translate(48,35)"/>
<path d="M0,0 L1,0 L1,1 L0,1 Z " fill="#FFFFFF" opacity="0.654902" transform="translate(23,35)"/>
<path d="M0,0 L1,0 L1,1 L0,1 Z " fill="#FFFFFF" opacity="0.8235294" transform="translate(21,35)"/>
<path d="M0,0 L1,0 L1,1 L0,1 Z " fill="#FFFFFF" opacity="0.8862745" transform="translate(16,35)"/>
<path d="M0,0 L1,0 L1,1 L0,1 Z " fill="#FFFFFF" opacity="0.015686275" transform="translate(15,35)"/>
<path d="M0,0 L1,0 L1,1 L0,1 Z " fill="#FFFFFF" opacity="0.72156864" transform="translate(72,34)"/>
<path d="M0,0 L1,0 L1,1 L0,1 Z " fill="#FFFFFF" opacity="0.22745098" transform="translate(67,34)"/>
<path d="M0,0 L1,0 L1,1 L0,1 Z " fill="#FFFFFF" opacity="0.03529412" transform="translate(29,34)"/>
<path d="M0,0 L1,0 L1,1 L0,1 Z " fill="#FFFFFF" opacity="0.92941177" transform="translate(28,34)"/>
<path d="M0,0 L1,0 L1,1 L0,1 Z " fill="#FFFFFF" opacity="0.28627452" transform="translate(22,34)"/>
<path d="M0,0 L1,0 L1,1 L0,1 Z " fill="#FFFFFF" opacity="0.92156863" transform="translate(22,33)"/>
<path d="M0,0 L1,0 L1,1 L0,1 Z " fill="#FFFFFF" opacity="0.9647059" transform="translate(17,33)"/>
<path d="M0,0 L1,0 L1,1 L0,1 Z " fill="#FFFFFF" opacity="0.078431375" transform="translate(16,33)"/>
<path d="M0,0 L1,0 L1,1 L0,1 Z " fill="#FFFFFF" opacity="0.29411766" transform="translate(72,32)"/>
<path d="M0,0 L1,0 L1,1 L0,1 Z " fill="#FFFFFF" opacity="0.6509804" transform="translate(67,32)"/>
<path d="M0,0 L1,0 L1,1 L0,1 Z " fill="#FFFFFF" opacity="0.8039216" transform="translate(48,32)"/>
<path d="M0,0 L1,0 L1,1 L0,1 Z " fill="#FFFFFF" opacity="0.13333334" transform="translate(28,32)"/>
<path d="M0,0 L1,0 L1,1 L0,1 Z " fill="#FFFFFF" opacity="0.13333334" transform="translate(72,31)"/>
<path d="M0,0 L1,0 L1,1 L0,1 Z " fill="#FFFFFF" opacity="0.7058824" transform="translate(27,31)"/>
<path d="M0,0 L1,0 L1,1 L0,1 Z " fill="#FFFFFF" opacity="0.18431373" transform="translate(17,31)"/>
<path d="M0,0 L1,0 L1,1 L0,1 Z " fill="#FFFFFF" opacity="0.99215686" transform="translate(73,30)"/>
<path d="M0,0 L1,0 L1,1 L0,1 Z " fill="#FFFFFF" opacity="0.7529412" transform="translate(18,30)"/>
<path d="M0,0 L1,0 L1,1 L0,1 Z " fill="#FFFFFF" opacity="0.1254902" transform="translate(72,29)"/>
<path d="M0,0 L1,0 L1,1 L0,1 Z " fill="#FFFFFF" opacity="0.007843138" transform="translate(27,29)"/>
<path d="M0,0 L1,0 L1,1 L0,1 Z " fill="#FFFFFF" opacity="0.85882354" transform="translate(26,29)"/>
<path d="M0,0 L1,0 L1,1 L0,1 Z " fill="#FFFFFF" opacity="0.011764706" transform="translate(71,28)"/>
<path d="M0,0 L1,0 L1,1 L0,1 Z " fill="#FFFFFF" opacity="0.8784314" transform="translate(19,28)"/>
<path d="M0,0 L1,0 L1,1 L0,1 Z " fill="#FFFFFF" opacity="0.011764706" transform="translate(18,28)"/>
<path d="M0,0 L1,0 L1,1 L0,1 Z " fill="#FFFFFF" opacity="0.7882353" transform="translate(71,27)"/>
<path d="M0,0 L1,0 L1,1 L0,1 Z " fill="#FFFFFF" opacity="0.47058824" transform="translate(70,27)"/>
<path d="M0,0 L1,0 L1,1 L0,1 Z " fill="#FFFFFF" opacity="0.105882354" transform="translate(61,27)"/>
<path d="M0,0 L1,0 L1,1 L0,1 Z " fill="#FFFFFF" opacity="0.37254903" transform="translate(56,27)"/>
<path d="M0,0 L1,0 L1,1 L0,1 Z " fill="#FFFFFF" opacity="0.40784314" transform="translate(48,27)"/>
<path d="M0,0 L1,0 L1,1 L0,1 Z " fill="#FFFFFF" opacity="0.06666667" transform="translate(26,27)"/>
<path d="M0,0 L1,0 L1,1 L0,1 Z " fill="#FFFFFF" opacity="0.32941177" transform="translate(19,27)"/>
<path d="M0,0 L1,0 L1,1 L0,1 Z " fill="#FFFFFF" opacity="0.7058824" transform="translate(61,22)"/>
<path d="M0,0 L1,0 L1,1 L0,1 Z " fill="#FFFFFF" opacity="0.972549" transform="translate(56,22)"/>
<path d="M0,0 L1,0 L1,1 L0,1 Z " fill="#FFFFFF" opacity="0.92156863" transform="translate(4,17)"/>
<path d="M0,0 L1,0 L1,1 L0,1 Z " fill="#FFFFFF" opacity="0.81960785" transform="translate(79,16)"/>
<path d="M0,0 L1,0 L1,1 L0,1 Z " fill="#FFFFFF" opacity="0.1764706" transform="translate(5,16)"/>
<path d="M0,0 L1,0 L1,1 L0,1 Z " fill="#FFFFFF" opacity="0.81960785" transform="translate(0,16)"/>
<path d="M0,0 L1,0 L1,1 L0,1 Z " fill="#FFFFFF" opacity="0.011764706" transform="translate(6,15)"/>
<path d="M0,0 L1,0 L1,1 L0,1 Z " fill="#FFFFFF" opacity="0.21176471" transform="translate(79,14)"/>
<path d="M0,0 L1,0 L1,1 L0,1 Z " fill="#FFFFFF" opacity="0.1764706" transform="translate(7,14)"/>
<path d="M0,0 L1,0 L1,1 L0,1 Z " fill="#FFFFFF" opacity="0.21176471" transform="translate(0,14)"/>
<path d="M0,0 L1,0 L1,1 L0,1 Z " fill="#FFFFFF" opacity="0.6862745" transform="translate(78,13)"/>
<path d="M0,0 L1,0 L1,1 L0,1 Z " fill="#FFFFFF" opacity="0.9254902" transform="translate(8,13)"/>
<path d="M0,0 L1,0 L1,1 L0,1 Z " fill="#FFFFFF" opacity="0.6862745" transform="translate(1,13)"/>
<path d="M0,0 L1,0 L1,1 L0,1 Z " fill="#FFFFFF" opacity="0.101960786" transform="translate(78,12)"/>
<path d="M0,0 L1,0 L1,1 L0,1 Z " fill="#FFFFFF" opacity="0.101960786" transform="translate(1,12)"/>
<path d="M0,0 L1,0 L1,1 L0,1 Z " fill="#FFFFFF" opacity="0.18431373" transform="translate(77,11)"/>
<path d="M0,0 L1,0 L1,1 L0,1 Z " fill="#FFFFFF" opacity="0.18431373" transform="translate(2,11)"/>
<path d="M0,0 L1,0 L1,1 L0,1 Z " fill="#FFFFFF" opacity="0.101960786" transform="translate(76,10)"/>
<path d="M0,0 L1,0 L1,1 L0,1 Z " fill="#FFFFFF" opacity="0.6901961" transform="translate(75,10)"/>
<path d="M0,0 L1,0 L1,1 L0,1 Z " fill="#FFFFFF" opacity="0.101960786" transform="translate(3,10)"/>
<path d="M0,0 L1,0 L1,1 L0,1 Z " fill="#FFFFFF" opacity="0.5647059" transform="translate(73,9)"/>
<path d="M0,0 L1,0 L1,1 L0,1 Z " fill="#FFFFFF" opacity="0.8235294" transform="translate(72,9)"/>
<path d="M0,0 L1,0 L1,1 L0,1 Z " fill="#FFFFFF" opacity="0.9372549" transform="translate(71,9)"/>
<path d="M0,0 L1,0 L1,1 L0,1 Z " fill="#FFFFFF" opacity="0.8235294" transform="translate(7,9)"/>
<path d="M0,0 L1,0 L1,1 L0,1 Z " fill="#FFFFFF" opacity="0.21568628" transform="translate(5,9)"/>
</svg>
