<?xml version="1.0" encoding="UTF-8"?>
<!-- Generator: visioncortex VTracer 0.6.4 -->
<svg version="1.1" xmlns="http://www.w3.org/2000/svg" width="16" height="16">
<path d="M0,0 L2,0 L2,3 L0,3 L0,2 L-1,2 L-1,1 L0,1 Z M8,2 L11,2 L11,4 L10,4 L10,5 L9,5 L9,4 L8,4 Z M0,8 L2,8 L2,9 L0,9 Z M2,9 L5,9 L5,12 L3,12 L3,11 L2,11 Z " fill="#A3EEAA" opacity="0.5568628" transform="translate(3,3)"/>
<path d="M0,0 L2,0 L2,1 L0,1 Z M-1,1 L0,1 L0,2 L-1,2 Z " fill="#A3EEAA" opacity="0.5568628" transform="translate(7,1)"/>
<path d="M0,0 L3,0 L3,2 L2,2 L2,3 L1,3 L1,2 L0,2 Z " fill="#A5EFAC" transform="translate(11,5)"/>
<path d="M0,0 L1,0 L1,1 L0,1 Z " fill="#A3EEAA" opacity="0.5568628" transform="translate(13,9)"/>
<path d="M0,0 L1,0 L1,1 L2,1 L2,4 L0,4 L0,3 L-1,3 L-1,1 L0,1 Z " fill="#A4EEAB" opacity="0.98039216" transform="translate(6,11)"/>
<path d="M0,0 L2,0 L2,3 L0,3 L0,2 L-1,2 L-1,1 L0,1 Z " fill="#A5EFAC" transform="translate(3,3)"/>
<path d="M0,0 L1,0 L1,1 L0,1 Z " fill="#8BD7A3" opacity="0.043137256" transform="translate(1,6)"/>
<path d="M0,0 L1,0 L1,1 L0,1 Z " fill="#A5EEAB" opacity="0.07450981" transform="translate(9,13)"/>
<path d="M0,0 L3,0 L3,3 L1,3 L1,2 L0,2 Z " fill="#A5EFAC" transform="translate(5,12)"/>
<path d="M0,0 L1,0 L1,1 L0,1 Z " fill="#A0E9A6" opacity="0.02745098" transform="translate(10,2)"/>
<path d="M0,0 L1,0 L1,1 L0,1 Z " fill="#A0E8A4" opacity="0.10980392" transform="translate(6,10)"/>
<path d="M0,0 L1,0 L1,1 L0,1 Z " fill="#A0EBA6" opacity="0.3647059" transform="translate(1,9)"/>
<path d="M0,0 L1,0 L1,1 L0,1 Z " fill="#A3EEAA" opacity="0.5568628" transform="translate(6,1)"/>
<path d="M0,0 L1,0 L1,1 L0,1 Z " fill="#9DE4A3" opacity="0.08627451" transform="translate(8,0)"/>
<path d="M0,0 L1,0 L1,1 L0,1 Z " fill="#A3EEAA" opacity="0.38039216" transform="translate(6,15)"/>
<path d="M0,0 L1,0 L1,1 L0,1 Z " fill="#A0E4A4" opacity="0.34901962" transform="translate(12,12)"/>
<path d="M0,0 L1,0 L1,1 L0,1 Z " fill="#A3EEAA" opacity="0.32941177" transform="translate(10,5)"/>
<path d="M0,0 L1,0 L1,1 L0,1 Z " fill="#A5EEAB" opacity="0.9647059" transform="translate(8,13)"/>
<path d="M0,0 L1,0 L1,1 L0,1 Z " fill="#A2EDA9" opacity="0.6666667" transform="translate(4,13)"/>
<path d="M0,0 L1,0 L1,1 L0,1 Z " fill="#A2ECA9" opacity="0.45490196" transform="translate(12,11)"/>
<path d="M0,0 L1,0 L1,1 L0,1 Z " fill="#A3EDAA" opacity="0.5137255" transform="translate(2,11)"/>
<path d="M0,0 L1,0 L1,1 L0,1 Z " fill="#9EE9A2" opacity="0.08235294" transform="translate(15,6)"/>
<path d="M0,0 L1,0 L1,1 L0,1 Z " fill="#A3EEA9" opacity="0.32941177" transform="translate(4,6)"/>
<path d="M0,0 L1,0 L1,1 L0,1 Z M-1,1 L0,1 L0,2 L-1,2 Z " fill="#A5EFAC" transform="translate(3,3)"/>
<path d="M0,0 L1,0 L1,1 L0,1 Z " fill="#9CE5A2" opacity="0.003921569" transform="translate(10,14)"/>
<path d="M0,0 L1,0 L1,1 L0,1 Z " fill="#94DC9C" opacity="0.101960786" transform="translate(14,10)"/>
<path d="M0,0 L1,0 L1,1 L0,1 Z " fill="#9AE6A3" opacity="0.09411765" transform="translate(4,10)"/>
<path d="M0,0 L1,0 L1,1 L0,1 Z " fill="#A2EDA9" opacity="0.6392157" transform="translate(12,8)"/>
<path d="M0,0 L1,0 L1,1 L0,1 Z " fill="#A5EFAC" opacity="0.9490196" transform="translate(14,5)"/>
<path d="M0,0 L1,0 L1,1 L0,1 Z " fill="#A5EFAC" opacity="0.99215686" transform="translate(12,4)"/>
<path d="M0,0 L1,0 L1,1 L0,1 Z " fill="#A3EDA9" opacity="0.32941177" transform="translate(1,4)"/>
<path d="M0,0 L1,0 L1,1 L0,1 Z " fill="#9EE7AA" opacity="0.1254902" transform="translate(13,3)"/>
<path d="M0,0 L1,0 L1,1 L0,1 Z " fill="#93C297" opacity="0.039215688" transform="translate(12,2)"/>
<path d="M0,0 L1,0 L1,1 L0,1 Z " fill="#A4EFAB" opacity="0.972549" transform="translate(3,2)"/>
<path d="M0,0 L1,0 L1,1 L0,1 Z " fill="#9FE3A3" opacity="0.3372549" transform="translate(4,1)"/>
<path d="M0,0 L1,0 L1,1 L0,1 Z " fill="#9CE5A0" opacity="0.08235294" transform="translate(6,0)"/>
<path d="M0,0 L1,0 L1,1 L0,1 Z " fill="#A2ECAA" opacity="0.007843138" transform="translate(8,15)"/>
<path d="M0,0 L1,0 L1,1 L0,1 Z " fill="#A4EEAA" opacity="0.30980393" transform="translate(7,15)"/>
<path d="M0,0 L1,0 L1,1 L0,1 Z " fill="#A4EDAA" opacity="0.05882353" transform="translate(5,15)"/>
<path d="M0,0 L1,0 L1,1 L0,1 Z " fill="#A2ECAA" opacity="0.019607844" transform="translate(9,14)"/>
<path d="M0,0 L1,0 L1,1 L0,1 Z " fill="#A2ECAA" opacity="0.63529414" transform="translate(8,14)"/>
<path d="M0,0 L1,0 L1,1 L0,1 Z " fill="#A4EDAA" opacity="0.85490197" transform="translate(5,14)"/>
<path d="M0,0 L1,0 L1,1 L0,1 Z " fill="#92D899" opacity="0.14901961" transform="translate(4,14)"/>
<path d="M0,0 L1,0 L1,1 L0,1 Z " fill="#93C097" opacity="0.15686275" transform="translate(11,13)"/>
<path d="M0,0 L1,0 L1,1 L0,1 Z " fill="#9CE5A2" opacity="0.14117648" transform="translate(10,13)"/>
<path d="M0,0 L1,0 L1,1 L0,1 Z " fill="#9EE9A6" opacity="0.23529412" transform="translate(3,13)"/>
<path d="M0,0 L1,0 L1,1 L0,1 Z " fill="#A0EBA9" opacity="0.007843138" transform="translate(13,12)"/>
<path d="M0,0 L1,0 L1,1 L0,1 Z " fill="#A0E8A4" opacity="0.18431373" transform="translate(11,12)"/>
<path d="M0,0 L1,0 L1,1 L0,1 Z " fill="#A4EFAB" opacity="0.043137256" transform="translate(9,12)"/>
<path d="M0,0 L1,0 L1,1 L0,1 Z " fill="#A4EFAB" opacity="0.9372549" transform="translate(8,12)"/>
<path d="M0,0 L1,0 L1,1 L0,1 Z " fill="#A3EDAA" opacity="0.6509804" transform="translate(4,12)"/>
<path d="M0,0 L1,0 L1,1 L0,1 Z " fill="#A3EEAA" opacity="0.5529412" transform="translate(3,12)"/>
<path d="M0,0 L1,0 L1,1 L0,1 Z " fill="#9CE9A7" opacity="0.17254902" transform="translate(2,12)"/>
<path d="M0,0 L1,0 L1,1 L0,1 Z " fill="#A0EBA9" opacity="0.3019608" transform="translate(13,11)"/>
<path d="M0,0 L1,0 L1,1 L0,1 Z " fill="#A2EDAA" opacity="0.40784314" transform="translate(8,11)"/>
<path d="M0,0 L1,0 L1,1 L0,1 Z " fill="#A4EEAB" opacity="0.94509804" transform="translate(7,11)"/>
<path d="M0,0 L1,0 L1,1 L0,1 Z " fill="#A2EDA9" opacity="0.80784315" transform="translate(5,11)"/>
<path d="M0,0 L1,0 L1,1 L0,1 Z " fill="#85D3AA" opacity="0.023529412" transform="translate(1,11)"/>
<path d="M0,0 L1,0 L1,1 L0,1 Z " fill="#A3EEAA" opacity="0.5529412" transform="translate(13,10)"/>
<path d="M0,0 L1,0 L1,1 L0,1 Z " fill="#A1EBA8" opacity="0.38431373" transform="translate(12,10)"/>
<path d="M0,0 L1,0 L1,1 L0,1 Z " fill="#A0E8A4" opacity="0.050980393" transform="translate(7,10)"/>
<path d="M0,0 L1,0 L1,1 L0,1 Z " fill="#9AE6A3" opacity="0.05490196" transform="translate(5,10)"/>
<path d="M0,0 L1,0 L1,1 L0,1 Z " fill="#9AE3A4" opacity="0.2627451" transform="translate(3,10)"/>
<path d="M0,0 L1,0 L1,1 L0,1 Z " fill="#A3EDAA" opacity="0.53333336" transform="translate(2,10)"/>
<path d="M0,0 L1,0 L1,1 L0,1 Z " fill="#85D3AA" opacity="0.22745098" transform="translate(1,10)"/>
<path d="M0,0 L1,0 L1,1 L0,1 Z " fill="#99E09E" opacity="0.32156864" transform="translate(14,9)"/>
<path d="M0,0 L1,0 L1,1 L0,1 Z " fill="#A3EDA9" opacity="0.49019608" transform="translate(12,9)"/>
<path d="M0,0 L1,0 L1,1 L0,1 Z " fill="#92DFA9" opacity="0.1254902" transform="translate(2,9)"/>
<path d="M0,0 L1,0 L1,1 L0,1 Z " fill="#A2EDA9" opacity="0.48235294" transform="translate(14,8)"/>
<path d="M0,0 L1,0 L1,1 L0,1 Z " fill="#A3EDAA" opacity="0.63529414" transform="translate(13,8)"/>
<path d="M0,0 L1,0 L1,1 L0,1 Z " fill="#9AE49D" opacity="0.19215687" transform="translate(11,8)"/>
<path d="M0,0 L1,0 L1,1 L0,1 Z " fill="#9FE8A5" opacity="0.25882354" transform="translate(1,8)"/>
<path d="M0,0 L1,0 L1,1 L0,1 Z " fill="#9EE9A2" opacity="0.007843138" transform="translate(15,7)"/>
<path d="M0,0 L1,0 L1,1 L0,1 Z " fill="#A2ECA9" opacity="0.75686276" transform="translate(14,7)"/>
<path d="M0,0 L1,0 L1,1 L0,1 Z " fill="#A4EFAB" opacity="0.9882353" transform="translate(13,7)"/>
<path d="M0,0 L1,0 L1,1 L0,1 Z " fill="#A3EEAA" opacity="0.8235294" transform="translate(11,7)"/>
<path d="M0,0 L1,0 L1,1 L0,1 Z " fill="#A4EEAB" opacity="0.03529412" transform="translate(10,7)"/>
<path d="M0,0 L1,0 L1,1 L0,1 Z " fill="#8BD7A3" opacity="0.14509805" transform="translate(1,7)"/>
<path d="M0,0 L1,0 L1,1 L0,1 Z " fill="#A4EEAB" opacity="0.9647059" transform="translate(14,6)"/>
<path d="M0,0 L1,0 L1,1 L0,1 Z " fill="#A4EEAB" opacity="0.34901962" transform="translate(10,6)"/>
<path d="M0,0 L1,0 L1,1 L0,1 Z " fill="#A2ECA9" opacity="0.011764706" transform="translate(5,6)"/>
<path d="M0,0 L1,0 L1,1 L0,1 Z " fill="#A3EDAB" opacity="0.35686275" transform="translate(3,6)"/>
<path d="M0,0 L1,0 L1,1 L0,1 Z " fill="#A4EEAB" opacity="0.043137256" transform="translate(2,6)"/>
<path d="M0,0 L1,0 L1,1 L0,1 Z " fill="#A5EFAC" opacity="0.05882353" transform="translate(15,5)"/>
<path d="M0,0 L1,0 L1,1 L0,1 Z " fill="#A5EFAC" transform="translate(11,5)"/>
<path d="M0,0 L1,0 L1,1 L0,1 Z " fill="#9CDCA0" opacity="0.003921569" transform="translate(6,5)"/>
<path d="M0,0 L1,0 L1,1 L0,1 Z " fill="#A2ECA9" opacity="0.6862745" transform="translate(5,5)"/>
<path d="M0,0 L1,0 L1,1 L0,1 Z " fill="#A4EEAB" opacity="0.8" transform="translate(2,5)"/>
<path d="M0,0 L1,0 L1,1 L0,1 Z " fill="#A3EDA9" opacity="0.03529412" transform="translate(1,5)"/>
<path d="M0,0 L1,0 L1,1 L0,1 Z " fill="#A4EEAA" opacity="0.49411765" transform="translate(14,4)"/>
<path d="M0,0 L1,0 L1,1 L0,1 Z " fill="#A5EEAB" opacity="0.972549" transform="translate(13,4)"/>
<path d="M0,0 L1,0 L1,1 L0,1 Z " fill="#A4EEAA" opacity="0.7019608" transform="translate(11,4)"/>
<path d="M0,0 L1,0 L1,1 L0,1 Z " fill="#A4EEAA" opacity="0.019607844" transform="translate(10,4)"/>
<path d="M0,0 L1,0 L1,1 L0,1 Z " fill="#9CDCA0" opacity="0.26666668" transform="translate(6,4)"/>
<path d="M0,0 L1,0 L1,1 L0,1 Z " fill="#A4EEAB" opacity="0.99215686" transform="translate(5,4)"/>
<path d="M0,0 L1,0 L1,1 L0,1 Z " fill="#9CE5A2" opacity="0.21568628" transform="translate(12,3)"/>
<path d="M0,0 L1,0 L1,1 L0,1 Z " fill="#A1EBA9" opacity="0.03137255" transform="translate(7,3)"/>
<path d="M0,0 L1,0 L1,1 L0,1 Z " fill="#A2ECA9" opacity="0.5019608" transform="translate(6,3)"/>
<path d="M0,0 L1,0 L1,1 L0,1 Z " fill="#A4EEAB" opacity="0.96862745" transform="translate(5,3)"/>
<path d="M0,0 L1,0 L1,1 L0,1 Z " fill="#A5EFAC" opacity="0.99215686" transform="translate(2,3)"/>
<path d="M0,0 L1,0 L1,1 L0,1 Z " fill="#A2ECA9" opacity="0.2627451" transform="translate(1,3)"/>
<path d="M0,0 L1,0 L1,1 L0,1 Z " fill="#93C297" opacity="0.14117648" transform="translate(11,2)"/>
<path d="M0,0 L1,0 L1,1 L0,1 Z " fill="#9AE29E" opacity="0.09411765" transform="translate(8,2)"/>
<path d="M0,0 L1,0 L1,1 L0,1 Z " fill="#A1EBA9" opacity="0.44313726" transform="translate(7,2)"/>
<path d="M0,0 L1,0 L1,1 L0,1 Z " fill="#A2ECA9" opacity="0.7294118" transform="translate(5,2)"/>
<path d="M0,0 L1,0 L1,1 L0,1 Z " fill="#A4EEAB" opacity="0.9607843" transform="translate(4,2)"/>
<path d="M0,0 L1,0 L1,1 L0,1 Z " fill="#A3ECA9" opacity="0.6039216" transform="translate(2,2)"/>
<path d="M0,0 L1,0 L1,1 L0,1 Z " fill="#A0E9A6" opacity="0.023529412" transform="translate(11,1)"/>
<path d="M0,0 L1,0 L1,1 L0,1 Z " fill="#A0E9A6" opacity="0.27450982" transform="translate(10,1)"/>
<path d="M0,0 L1,0 L1,1 L0,1 Z " fill="#A3EBA9" opacity="0.45882353" transform="translate(9,1)"/>
<path d="M0,0 L1,0 L1,1 L0,1 Z " fill="#A3EDAA" opacity="0.5294118" transform="translate(5,1)"/>
<path d="M0,0 L1,0 L1,1 L0,1 Z " fill="#99DCA2" opacity="0.10980392" transform="translate(3,1)"/>
<path d="M0,0 L1,0 L1,1 L0,1 Z " fill="#9DE4A3" opacity="0.007843138" transform="translate(9,0)"/>
<path d="M0,0 L1,0 L1,1 L0,1 Z " fill="#A0E9A5" opacity="0.1254902" transform="translate(7,0)"/>
<path d="M0,0 L1,0 L1,1 L0,1 Z " fill="#9CE5A0" opacity="0.007843138" transform="translate(5,0)"/>
</svg>
